<?xml version="1.0" encoding="UTF-8" standalone="no"?>
<!DOCTYPE svg PUBLIC "-//W3C//DTD SVG 1.1//EN"
 "http://www.w3.org/Graphics/SVG/1.1/DTD/svg11.dtd">
<!-- Generated by graphviz version 5.0.0 (20220707.1540)
 -->
<!-- Title: dependencies Pages: 1 -->
<svg width="2605pt" height="247pt"
 viewBox="0.00 0.00 2605.00 246.80" xmlns="http://www.w3.org/2000/svg" xmlns:xlink="http://www.w3.org/1999/xlink">
<g id="graph0" class="graph" transform="scale(1 1) rotate(0) translate(4 242.8)">
<title>dependencies</title>
<polygon fill="white" stroke="transparent" points="-4,4 -4,-242.8 2601,-242.8 2601,4 -4,4"/>
<text text-anchor="middle" x="1298.5" y="-8.2" font-family="sans-serif" font-size="14.00">dependencies</text>
<g id="clust1" class="cluster">
<title>cluster_AppModule</title>
<polygon fill="none" stroke="black" stroke-dasharray="1,5" points="8,-32.8 8,-230.8 2589,-230.8 2589,-32.8 8,-32.8"/>
</g>
<g id="clust19" class="cluster">
<title>cluster_AppModule_imports</title>
<polygon fill="none" stroke="black" points="2437,-40.8 2437,-92.8 2581,-92.8 2581,-40.8 2437,-40.8"/>
</g>
<g id="clust21" class="cluster">
<title>cluster_AppModule_bootstrap</title>
<polygon fill="none" stroke="black" points="1208,-170.8 1208,-222.8 1332,-222.8 1332,-170.8 1208,-170.8"/>
</g>
<g id="clust22" class="cluster">
<title>cluster_AppModule_providers</title>
<polygon fill="none" stroke="black" points="2275,-40.8 2275,-92.8 2429,-92.8 2429,-40.8 2275,-40.8"/>
</g>
<g id="clust2" class="cluster">
<title>cluster_AppModule_declarations</title>
<polygon fill="none" stroke="black" points="16,-40.8 16,-92.8 2267,-92.8 2267,-40.8 16,-40.8"/>
</g>
<!-- AboutComponent -->
<g id="node1" class="node">
<title>AboutComponent</title>
<polygon fill="#ffffb3" stroke="black" points="2259.33,-84.8 2142.67,-84.8 2142.67,-48.8 2259.33,-48.8 2259.33,-84.8"/>
<text text-anchor="middle" x="2201" y="-62.6" font-family="Times,serif" font-size="14.00">AboutComponent</text>
</g>
<!-- AppModule -->
<g id="node17" class="node">
<title>AppModule</title>
<polygon fill="#8dd3c7" stroke="black" points="1311.66,-149.8 1308.66,-153.8 1287.66,-153.8 1284.66,-149.8 1228.34,-149.8 1228.34,-113.8 1311.66,-113.8 1311.66,-149.8"/>
<text text-anchor="middle" x="1270" y="-127.6" font-family="Times,serif" font-size="14.00">AppModule</text>
</g>
<!-- AboutComponent&#45;&gt;AppModule -->
<g id="edge1" class="edge">
<title>AboutComponent&#45;&gt;AppModule</title>
<path fill="none" stroke="black" d="M2201,-85.08C2201,-106.12 2201,-137.8 2201,-137.8 2201,-137.8 1321.81,-137.8 1321.81,-137.8"/>
<polygon fill="black" stroke="black" points="1321.81,-134.3 1311.81,-137.8 1321.81,-141.3 1321.81,-134.3"/>
</g>
<!-- AppComponent -->
<g id="node2" class="node">
<title>AppComponent</title>
<polygon fill="#ffffb3" stroke="black" points="2124.94,-84.8 2019.06,-84.8 2019.06,-48.8 2124.94,-48.8 2124.94,-84.8"/>
<text text-anchor="middle" x="2072" y="-62.6" font-family="Times,serif" font-size="14.00">AppComponent</text>
</g>
<!-- AppComponent&#45;&gt;AppModule -->
<g id="edge2" class="edge">
<title>AppComponent&#45;&gt;AppModule</title>
<path fill="none" stroke="black" d="M2072,-85.11C2072,-104.95 2072,-133.8 2072,-133.8 2072,-133.8 1321.71,-133.8 1321.71,-133.8"/>
<polygon fill="black" stroke="black" points="1321.71,-130.3 1311.71,-133.8 1321.71,-137.3 1321.71,-130.3"/>
</g>
<!-- CardviewComponent -->
<g id="node3" class="node">
<title>CardviewComponent</title>
<polygon fill="#ffffb3" stroke="black" points="2000.76,-84.8 1865.24,-84.8 1865.24,-48.8 2000.76,-48.8 2000.76,-84.8"/>
<text text-anchor="middle" x="1933" y="-62.6" font-family="Times,serif" font-size="14.00">CardviewComponent</text>
</g>
<!-- CardviewComponent&#45;&gt;AppModule -->
<g id="edge3" class="edge">
<title>CardviewComponent&#45;&gt;AppModule</title>
<path fill="none" stroke="black" d="M1933,-85.02C1933,-103.63 1933,-129.8 1933,-129.8 1933,-129.8 1321.72,-129.8 1321.72,-129.8"/>
<polygon fill="black" stroke="black" points="1321.72,-126.3 1311.72,-129.8 1321.72,-133.3 1321.72,-126.3"/>
</g>
<!-- CustomersdataComponent -->
<g id="node4" class="node">
<title>CustomersdataComponent</title>
<polygon fill="#ffffb3" stroke="black" points="1847.04,-84.8 1682.96,-84.8 1682.96,-48.8 1847.04,-48.8 1847.04,-84.8"/>
<text text-anchor="middle" x="1765" y="-62.6" font-family="Times,serif" font-size="14.00">CustomersdataComponent</text>
</g>
<!-- CustomersdataComponent&#45;&gt;AppModule -->
<g id="edge4" class="edge">
<title>CustomersdataComponent&#45;&gt;AppModule</title>
<path fill="none" stroke="black" d="M1765,-84.82C1765,-102.17 1765,-125.8 1765,-125.8 1765,-125.8 1321.78,-125.8 1321.78,-125.8"/>
<polygon fill="black" stroke="black" points="1321.78,-122.3 1311.78,-125.8 1321.78,-129.3 1321.78,-122.3"/>
</g>
<!-- DetailsComponent -->
<g id="node5" class="node">
<title>DetailsComponent</title>
<polygon fill="#ffffb3" stroke="black" points="1664.49,-84.8 1543.51,-84.8 1543.51,-48.8 1664.49,-48.8 1664.49,-84.8"/>
<text text-anchor="middle" x="1604" y="-62.6" font-family="Times,serif" font-size="14.00">DetailsComponent</text>
</g>
<!-- DetailsComponent&#45;&gt;AppModule -->
<g id="edge5" class="edge">
<title>DetailsComponent&#45;&gt;AppModule</title>
<path fill="none" stroke="black" d="M1604,-84.81C1604,-100.85 1604,-121.8 1604,-121.8 1604,-121.8 1321.96,-121.8 1321.96,-121.8"/>
<polygon fill="black" stroke="black" points="1321.96,-118.3 1311.96,-121.8 1321.96,-125.3 1321.96,-118.3"/>
</g>
<!-- EditComponent -->
<g id="node6" class="node">
<title>EditComponent</title>
<polygon fill="#ffffb3" stroke="black" points="1525.16,-84.8 1420.84,-84.8 1420.84,-48.8 1525.16,-48.8 1525.16,-84.8"/>
<text text-anchor="middle" x="1473" y="-62.6" font-family="Times,serif" font-size="14.00">EditComponent</text>
</g>
<!-- EditComponent&#45;&gt;AppModule -->
<g id="edge6" class="edge">
<title>EditComponent&#45;&gt;AppModule</title>
<path fill="none" stroke="black" d="M1473,-84.92C1473,-99.58 1473,-117.8 1473,-117.8 1473,-117.8 1322.06,-117.8 1322.06,-117.8"/>
<polygon fill="black" stroke="black" points="1322.06,-114.3 1312.06,-117.8 1322.06,-121.3 1322.06,-114.3"/>
</g>
<!-- HeaderComponent -->
<g id="node7" class="node">
<title>HeaderComponent</title>
<polygon fill="#ffffb3" stroke="black" points="1402.75,-84.8 1281.25,-84.8 1281.25,-48.8 1402.75,-48.8 1402.75,-84.8"/>
<text text-anchor="middle" x="1342" y="-62.6" font-family="Times,serif" font-size="14.00">HeaderComponent</text>
</g>
<!-- HeaderComponent&#45;&gt;AppModule -->
<g id="edge7" class="edge">
<title>HeaderComponent&#45;&gt;AppModule</title>
<path fill="none" stroke="black" d="M1296.48,-84.91C1296.48,-84.91 1296.48,-103.79 1296.48,-103.79"/>
<polygon fill="black" stroke="black" points="1292.98,-103.79 1296.48,-113.79 1299.98,-103.79 1292.98,-103.79"/>
</g>
<!-- ListviewComponent -->
<g id="node8" class="node">
<title>ListviewComponent</title>
<polygon fill="#ffffb3" stroke="black" points="1263.32,-84.8 1132.68,-84.8 1132.68,-48.8 1263.32,-48.8 1263.32,-84.8"/>
<text text-anchor="middle" x="1198" y="-62.6" font-family="Times,serif" font-size="14.00">ListviewComponent</text>
</g>
<!-- ListviewComponent&#45;&gt;AppModule -->
<g id="edge8" class="edge">
<title>ListviewComponent&#45;&gt;AppModule</title>
<path fill="none" stroke="black" d="M1245.67,-84.91C1245.67,-84.91 1245.67,-103.79 1245.67,-103.79"/>
<polygon fill="black" stroke="black" points="1242.17,-103.79 1245.67,-113.79 1249.17,-103.79 1242.17,-103.79"/>
</g>
<!-- LoginComponent -->
<g id="node9" class="node">
<title>LoginComponent</title>
<polygon fill="#ffffb3" stroke="black" points="1114.27,-84.8 999.73,-84.8 999.73,-48.8 1114.27,-48.8 1114.27,-84.8"/>
<text text-anchor="middle" x="1057" y="-62.6" font-family="Times,serif" font-size="14.00">LoginComponent</text>
</g>
<!-- LoginComponent&#45;&gt;AppModule -->
<g id="edge9" class="edge">
<title>LoginComponent&#45;&gt;AppModule</title>
<path fill="none" stroke="black" d="M1057,-84.92C1057,-99.58 1057,-117.8 1057,-117.8 1057,-117.8 1218.17,-117.8 1218.17,-117.8"/>
<polygon fill="black" stroke="black" points="1218.17,-121.3 1228.17,-117.8 1218.17,-114.3 1218.17,-121.3"/>
</g>
<!-- MapviewComponent -->
<g id="node10" class="node">
<title>MapviewComponent</title>
<polygon fill="#ffffb3" stroke="black" points="982.21,-84.8 847.79,-84.8 847.79,-48.8 982.21,-48.8 982.21,-84.8"/>
<text text-anchor="middle" x="915" y="-62.6" font-family="Times,serif" font-size="14.00">MapviewComponent</text>
</g>
<!-- MapviewComponent&#45;&gt;AppModule -->
<g id="edge10" class="edge">
<title>MapviewComponent&#45;&gt;AppModule</title>
<path fill="none" stroke="black" d="M915,-84.81C915,-100.85 915,-121.8 915,-121.8 915,-121.8 1218.23,-121.8 1218.23,-121.8"/>
<polygon fill="black" stroke="black" points="1218.23,-125.3 1228.23,-121.8 1218.23,-118.3 1218.23,-125.3"/>
</g>
<!-- NavComponent -->
<g id="node11" class="node">
<title>NavComponent</title>
<polygon fill="#ffffb3" stroke="black" points="830.16,-84.8 725.84,-84.8 725.84,-48.8 830.16,-48.8 830.16,-84.8"/>
<text text-anchor="middle" x="778" y="-62.6" font-family="Times,serif" font-size="14.00">NavComponent</text>
</g>
<!-- NavComponent&#45;&gt;AppModule -->
<g id="edge11" class="edge">
<title>NavComponent&#45;&gt;AppModule</title>
<path fill="none" stroke="black" d="M778,-84.82C778,-102.17 778,-125.8 778,-125.8 778,-125.8 1218.05,-125.8 1218.05,-125.8"/>
<polygon fill="black" stroke="black" points="1218.05,-129.3 1228.05,-125.8 1218.05,-122.3 1218.05,-129.3"/>
</g>
<!-- NewCustomerComponent -->
<g id="node12" class="node">
<title>NewCustomerComponent</title>
<polygon fill="#ffffb3" stroke="black" points="708.21,-84.8 545.79,-84.8 545.79,-48.8 708.21,-48.8 708.21,-84.8"/>
<text text-anchor="middle" x="627" y="-62.6" font-family="Times,serif" font-size="14.00">NewCustomerComponent</text>
</g>
<!-- NewCustomerComponent&#45;&gt;AppModule -->
<g id="edge12" class="edge">
<title>NewCustomerComponent&#45;&gt;AppModule</title>
<path fill="none" stroke="black" d="M627,-85.02C627,-103.63 627,-129.8 627,-129.8 627,-129.8 1218.31,-129.8 1218.31,-129.8"/>
<polygon fill="black" stroke="black" points="1218.31,-133.3 1228.31,-129.8 1218.31,-126.3 1218.31,-133.3"/>
</g>
<!-- OrdersComponent -->
<g id="node13" class="node">
<title>OrdersComponent</title>
<polygon fill="#ffffb3" stroke="black" points="527.93,-84.8 408.07,-84.8 408.07,-48.8 527.93,-48.8 527.93,-84.8"/>
<text text-anchor="middle" x="468" y="-62.6" font-family="Times,serif" font-size="14.00">OrdersComponent</text>
</g>
<!-- OrdersComponent&#45;&gt;AppModule -->
<g id="edge13" class="edge">
<title>OrdersComponent&#45;&gt;AppModule</title>
<path fill="none" stroke="black" d="M468,-85.11C468,-104.95 468,-133.8 468,-133.8 468,-133.8 1218.29,-133.8 1218.29,-133.8"/>
<polygon fill="black" stroke="black" points="1218.29,-137.3 1228.29,-133.8 1218.29,-130.3 1218.29,-137.3"/>
</g>
<!-- SearchPipe -->
<g id="node14" class="node">
<title>SearchPipe</title>
<polygon fill="#ffffb3" stroke="black" points="390.48,-84.8 311.52,-84.8 311.52,-48.8 390.48,-48.8 390.48,-84.8"/>
<text text-anchor="middle" x="351" y="-62.6" font-family="Times,serif" font-size="14.00">SearchPipe</text>
</g>
<!-- SearchPipe&#45;&gt;AppModule -->
<g id="edge14" class="edge">
<title>SearchPipe&#45;&gt;AppModule</title>
<path fill="none" stroke="black" d="M351,-85.08C351,-106.12 351,-137.8 351,-137.8 351,-137.8 1218.12,-137.8 1218.12,-137.8"/>
<polygon fill="black" stroke="black" points="1218.12,-141.3 1228.12,-137.8 1218.12,-134.3 1218.12,-141.3"/>
</g>
<!-- TestComponent -->
<g id="node15" class="node">
<title>TestComponent</title>
<polygon fill="#ffffb3" stroke="black" points="293.94,-84.8 188.06,-84.8 188.06,-48.8 293.94,-48.8 293.94,-84.8"/>
<text text-anchor="middle" x="241" y="-62.6" font-family="Times,serif" font-size="14.00">TestComponent</text>
</g>
<!-- TestComponent&#45;&gt;AppModule -->
<g id="edge15" class="edge">
<title>TestComponent&#45;&gt;AppModule</title>
<path fill="none" stroke="black" d="M241,-84.96C241,-107.15 241,-141.8 241,-141.8 241,-141.8 1218.07,-141.8 1218.07,-141.8"/>
<polygon fill="black" stroke="black" points="1218.07,-145.3 1228.07,-141.8 1218.07,-138.3 1218.07,-145.3"/>
</g>
<!-- ViewordersComponent -->
<g id="node16" class="node">
<title>ViewordersComponent</title>
<polygon fill="#ffffb3" stroke="black" points="170.14,-84.8 23.86,-84.8 23.86,-48.8 170.14,-48.8 170.14,-84.8"/>
<text text-anchor="middle" x="97" y="-62.6" font-family="Times,serif" font-size="14.00">ViewordersComponent</text>
</g>
<!-- ViewordersComponent&#45;&gt;AppModule -->
<g id="edge16" class="edge">
<title>ViewordersComponent&#45;&gt;AppModule</title>
<path fill="none" stroke="black" d="M97,-85.12C97,-108.46 97,-145.8 97,-145.8 97,-145.8 1218.25,-145.8 1218.25,-145.8"/>
<polygon fill="black" stroke="black" points="1218.25,-149.3 1228.25,-145.8 1218.25,-142.3 1218.25,-149.3"/>
</g>
<!-- AppComponent  -->
<g id="node19" class="node">
<title>AppComponent </title>
<polygon fill="#80b1d3" stroke="black" points="1324.44,-214.8 1215.56,-214.8 1215.56,-178.8 1324.44,-178.8 1324.44,-214.8"/>
<text text-anchor="middle" x="1270" y="-192.6" font-family="Times,serif" font-size="14.00">AppComponent </text>
</g>
<!-- AppModule&#45;&gt;AppComponent  -->
<g id="edge18" class="edge">
<title>AppModule&#45;&gt;AppComponent </title>
<path fill="none" stroke="black" stroke-dasharray="1,5" d="M1270,-149.91C1270,-149.91 1270,-168.79 1270,-168.79"/>
<polygon fill="black" stroke="black" points="1266.5,-168.79 1270,-178.79 1273.5,-168.79 1266.5,-168.79"/>
</g>
<!-- AppRoutingModule -->
<g id="node18" class="node">
<title>AppRoutingModule</title>
<polygon fill="#8dd3c7" stroke="black" points="2573.28,-84.8 2570.28,-88.8 2549.28,-88.8 2546.28,-84.8 2444.72,-84.8 2444.72,-48.8 2573.28,-48.8 2573.28,-84.8"/>
<text text-anchor="middle" x="2509" y="-62.6" font-family="Times,serif" font-size="14.00">AppRoutingModule</text>
</g>
<!-- AppRoutingModule&#45;&gt;AppModule -->
<g id="edge17" class="edge">
<title>AppRoutingModule&#45;&gt;AppModule</title>
<path fill="none" stroke="black" d="M2509,-85.12C2509,-108.46 2509,-145.8 2509,-145.8 2509,-145.8 1321.93,-145.8 1321.93,-145.8"/>
<polygon fill="black" stroke="black" points="1321.93,-142.3 1311.93,-145.8 1321.93,-149.3 1321.93,-142.3"/>
</g>
<!-- ServiceService -->
<g id="node20" class="node">
<title>ServiceService</title>
<ellipse fill="#fdb462" stroke="black" cx="2352" cy="-66.8" rx="68.9" ry="18"/>
<text text-anchor="middle" x="2352" y="-62.6" font-family="Times,serif" font-size="14.00">ServiceService</text>
</g>
<!-- ServiceService&#45;&gt;AppModule -->
<g id="edge19" class="edge">
<title>ServiceService&#45;&gt;AppModule</title>
<path fill="none" stroke="black" d="M2352,-84.96C2352,-107.15 2352,-141.8 2352,-141.8 2352,-141.8 1321.75,-141.8 1321.75,-141.8"/>
<polygon fill="black" stroke="black" points="1321.75,-138.3 1311.75,-141.8 1321.75,-145.3 1321.75,-138.3"/>
</g>
</g>
</svg>
