<?xml version="1.0" encoding="UTF-8" standalone="no"?>
<!DOCTYPE svg PUBLIC "-//W3C//DTD SVG 1.1//EN"
 "http://www.w3.org/Graphics/SVG/1.1/DTD/svg11.dtd">
<!-- Generated by graphviz version 5.0.0 (20220707.1540)
 -->
<!-- Title: dependencies Pages: 1 -->
<svg width="2605pt" height="247pt"
 viewBox="0.00 0.00 2605.00 246.80" xmlns="http://www.w3.org/2000/svg" xmlns:xlink="http://www.w3.org/1999/xlink">
<g id="graph0" class="graph" transform="scale(1 1) rotate(0) translate(4 242.8)">
<title>dependencies</title>
<polygon fill="white" stroke="transparent" points="-4,4 -4,-242.8 2601,-242.8 2601,4 -4,4"/>
<text text-anchor="middle" x="1298.5" y="-8.2" font-family="sans-serif" font-size="14.00">dependencies</text>
<g id="clust1" class="cluster">
<title>cluster_AppModule</title>
<polygon fill="none" stroke="black" stroke-dasharray="1,5" points="8,-32.8 8,-230.8 2589,-230.8 2589,-32.8 8,-32.8"/>
</g>
<g id="clust2" class="cluster">
<title>cluster_AppModule_declarations</title>
<polygon fill="none" stroke="black" points="330,-40.8 330,-92.8 2581,-92.8 2581,-40.8 330,-40.8"/>
</g>
<g id="clust19" class="cluster">
<title>cluster_AppModule_imports</title>
<polygon fill="none" stroke="black" points="178,-40.8 178,-92.8 322,-92.8 322,-40.8 178,-40.8"/>
</g>
<g id="clust21" class="cluster">
<title>cluster_AppModule_bootstrap</title>
<polygon fill="none" stroke="black" points="1238,-170.8 1238,-222.8 1362,-222.8 1362,-170.8 1238,-170.8"/>
</g>
<g id="clust22" class="cluster">
<title>cluster_AppModule_providers</title>
<polygon fill="none" stroke="black" points="16,-40.8 16,-92.8 170,-92.8 170,-40.8 16,-40.8"/>
</g>
<!-- AboutComponent -->
<g id="node1" class="node">
<title>AboutComponent</title>
<polygon fill="#ffffb3" stroke="black" points="2573.33,-84.8 2456.67,-84.8 2456.67,-48.8 2573.33,-48.8 2573.33,-84.8"/>
<text text-anchor="middle" x="2515" y="-62.6" font-family="Times,serif" font-size="14.00">AboutComponent</text>
</g>
<!-- AppModule -->
<g id="node17" class="node">
<title>AppModule</title>
<polygon fill="#8dd3c7" stroke="black" points="1341.66,-149.8 1338.66,-153.8 1317.66,-153.8 1314.66,-149.8 1258.34,-149.8 1258.34,-113.8 1341.66,-113.8 1341.66,-149.8"/>
<text text-anchor="middle" x="1300" y="-127.6" font-family="Times,serif" font-size="14.00">AppModule</text>
</g>
<!-- AboutComponent&#45;&gt;AppModule -->
<g id="edge1" class="edge">
<title>AboutComponent&#45;&gt;AppModule</title>
<path fill="none" stroke="black" d="M2515,-85.12C2515,-108.46 2515,-145.8 2515,-145.8 2515,-145.8 1351.82,-145.8 1351.82,-145.8"/>
<polygon fill="black" stroke="black" points="1351.82,-142.3 1341.82,-145.8 1351.82,-149.3 1351.82,-142.3"/>
</g>
<!-- AppComponent -->
<g id="node2" class="node">
<title>AppComponent</title>
<polygon fill="#ffffb3" stroke="black" points="2438.94,-84.8 2333.06,-84.8 2333.06,-48.8 2438.94,-48.8 2438.94,-84.8"/>
<text text-anchor="middle" x="2386" y="-62.6" font-family="Times,serif" font-size="14.00">AppComponent</text>
</g>
<!-- AppComponent&#45;&gt;AppModule -->
<g id="edge2" class="edge">
<title>AppComponent&#45;&gt;AppModule</title>
<path fill="none" stroke="black" d="M2386,-84.96C2386,-107.15 2386,-141.8 2386,-141.8 2386,-141.8 1351.91,-141.8 1351.91,-141.8"/>
<polygon fill="black" stroke="black" points="1351.91,-138.3 1341.91,-141.8 1351.91,-145.3 1351.91,-138.3"/>
</g>
<!-- CardviewComponent -->
<g id="node3" class="node">
<title>CardviewComponent</title>
<polygon fill="#ffffb3" stroke="black" points="2314.76,-84.8 2179.24,-84.8 2179.24,-48.8 2314.76,-48.8 2314.76,-84.8"/>
<text text-anchor="middle" x="2247" y="-62.6" font-family="Times,serif" font-size="14.00">CardviewComponent</text>
</g>
<!-- CardviewComponent&#45;&gt;AppModule -->
<g id="edge3" class="edge">
<title>CardviewComponent&#45;&gt;AppModule</title>
<path fill="none" stroke="black" d="M2247,-85.08C2247,-106.12 2247,-137.8 2247,-137.8 2247,-137.8 1351.91,-137.8 1351.91,-137.8"/>
<polygon fill="black" stroke="black" points="1351.91,-134.3 1341.91,-137.8 1351.91,-141.3 1351.91,-134.3"/>
</g>
<!-- CustomersdataComponent -->
<g id="node4" class="node">
<title>CustomersdataComponent</title>
<polygon fill="#ffffb3" stroke="black" points="2161.04,-84.8 1996.96,-84.8 1996.96,-48.8 2161.04,-48.8 2161.04,-84.8"/>
<text text-anchor="middle" x="2079" y="-62.6" font-family="Times,serif" font-size="14.00">CustomersdataComponent</text>
</g>
<!-- CustomersdataComponent&#45;&gt;AppModule -->
<g id="edge4" class="edge">
<title>CustomersdataComponent&#45;&gt;AppModule</title>
<path fill="none" stroke="black" d="M2079,-85.11C2079,-104.95 2079,-133.8 2079,-133.8 2079,-133.8 1351.88,-133.8 1351.88,-133.8"/>
<polygon fill="black" stroke="black" points="1351.88,-130.3 1341.88,-133.8 1351.88,-137.3 1351.88,-130.3"/>
</g>
<!-- DetailsComponent -->
<g id="node5" class="node">
<title>DetailsComponent</title>
<polygon fill="#ffffb3" stroke="black" points="1978.49,-84.8 1857.51,-84.8 1857.51,-48.8 1978.49,-48.8 1978.49,-84.8"/>
<text text-anchor="middle" x="1918" y="-62.6" font-family="Times,serif" font-size="14.00">DetailsComponent</text>
</g>
<!-- DetailsComponent&#45;&gt;AppModule -->
<g id="edge5" class="edge">
<title>DetailsComponent&#45;&gt;AppModule</title>
<path fill="none" stroke="black" d="M1918,-85.02C1918,-103.63 1918,-129.8 1918,-129.8 1918,-129.8 1351.99,-129.8 1351.99,-129.8"/>
<polygon fill="black" stroke="black" points="1351.99,-126.3 1341.99,-129.8 1351.99,-133.3 1351.99,-126.3"/>
</g>
<!-- EditComponent -->
<g id="node6" class="node">
<title>EditComponent</title>
<polygon fill="#ffffb3" stroke="black" points="1839.16,-84.8 1734.84,-84.8 1734.84,-48.8 1839.16,-48.8 1839.16,-84.8"/>
<text text-anchor="middle" x="1787" y="-62.6" font-family="Times,serif" font-size="14.00">EditComponent</text>
</g>
<!-- EditComponent&#45;&gt;AppModule -->
<g id="edge6" class="edge">
<title>EditComponent&#45;&gt;AppModule</title>
<path fill="none" stroke="black" d="M1787,-84.82C1787,-102.17 1787,-125.8 1787,-125.8 1787,-125.8 1351.94,-125.8 1351.94,-125.8"/>
<polygon fill="black" stroke="black" points="1351.94,-122.3 1341.94,-125.8 1351.94,-129.3 1351.94,-122.3"/>
</g>
<!-- HeaderComponent -->
<g id="node7" class="node">
<title>HeaderComponent</title>
<polygon fill="#ffffb3" stroke="black" points="1716.75,-84.8 1595.25,-84.8 1595.25,-48.8 1716.75,-48.8 1716.75,-84.8"/>
<text text-anchor="middle" x="1656" y="-62.6" font-family="Times,serif" font-size="14.00">HeaderComponent</text>
</g>
<!-- HeaderComponent&#45;&gt;AppModule -->
<g id="edge7" class="edge">
<title>HeaderComponent&#45;&gt;AppModule</title>
<path fill="none" stroke="black" d="M1656,-84.81C1656,-100.85 1656,-121.8 1656,-121.8 1656,-121.8 1351.88,-121.8 1351.88,-121.8"/>
<polygon fill="black" stroke="black" points="1351.88,-118.3 1341.88,-121.8 1351.88,-125.3 1351.88,-118.3"/>
</g>
<!-- ListviewComponent -->
<g id="node8" class="node">
<title>ListviewComponent</title>
<polygon fill="#ffffb3" stroke="black" points="1577.32,-84.8 1446.68,-84.8 1446.68,-48.8 1577.32,-48.8 1577.32,-84.8"/>
<text text-anchor="middle" x="1512" y="-62.6" font-family="Times,serif" font-size="14.00">ListviewComponent</text>
</g>
<!-- ListviewComponent&#45;&gt;AppModule -->
<g id="edge8" class="edge">
<title>ListviewComponent&#45;&gt;AppModule</title>
<path fill="none" stroke="black" d="M1512,-84.92C1512,-99.58 1512,-117.8 1512,-117.8 1512,-117.8 1351.88,-117.8 1351.88,-117.8"/>
<polygon fill="black" stroke="black" points="1351.88,-114.3 1341.88,-117.8 1351.88,-121.3 1351.88,-114.3"/>
</g>
<!-- LoginComponent -->
<g id="node9" class="node">
<title>LoginComponent</title>
<polygon fill="#ffffb3" stroke="black" points="1428.27,-84.8 1313.73,-84.8 1313.73,-48.8 1428.27,-48.8 1428.27,-84.8"/>
<text text-anchor="middle" x="1371" y="-62.6" font-family="Times,serif" font-size="14.00">LoginComponent</text>
</g>
<!-- LoginComponent&#45;&gt;AppModule -->
<g id="edge9" class="edge">
<title>LoginComponent&#45;&gt;AppModule</title>
<path fill="none" stroke="black" d="M1327.72,-84.91C1327.72,-84.91 1327.72,-103.79 1327.72,-103.79"/>
<polygon fill="black" stroke="black" points="1324.22,-103.79 1327.72,-113.79 1331.22,-103.79 1324.22,-103.79"/>
</g>
<!-- MapviewComponent -->
<g id="node10" class="node">
<title>MapviewComponent</title>
<polygon fill="#ffffb3" stroke="black" points="1296.21,-84.8 1161.79,-84.8 1161.79,-48.8 1296.21,-48.8 1296.21,-84.8"/>
<text text-anchor="middle" x="1229" y="-62.6" font-family="Times,serif" font-size="14.00">MapviewComponent</text>
</g>
<!-- MapviewComponent&#45;&gt;AppModule -->
<g id="edge10" class="edge">
<title>MapviewComponent&#45;&gt;AppModule</title>
<path fill="none" stroke="black" d="M1277.14,-84.91C1277.14,-84.91 1277.14,-103.79 1277.14,-103.79"/>
<polygon fill="black" stroke="black" points="1273.64,-103.79 1277.14,-113.79 1280.64,-103.79 1273.64,-103.79"/>
</g>
<!-- NavComponent -->
<g id="node11" class="node">
<title>NavComponent</title>
<polygon fill="#ffffb3" stroke="black" points="1144.16,-84.8 1039.84,-84.8 1039.84,-48.8 1144.16,-48.8 1144.16,-84.8"/>
<text text-anchor="middle" x="1092" y="-62.6" font-family="Times,serif" font-size="14.00">NavComponent</text>
</g>
<!-- NavComponent&#45;&gt;AppModule -->
<g id="edge11" class="edge">
<title>NavComponent&#45;&gt;AppModule</title>
<path fill="none" stroke="black" d="M1092,-84.92C1092,-99.58 1092,-117.8 1092,-117.8 1092,-117.8 1247.91,-117.8 1247.91,-117.8"/>
<polygon fill="black" stroke="black" points="1247.91,-121.3 1257.91,-117.8 1247.91,-114.3 1247.91,-121.3"/>
</g>
<!-- NewCustomerComponent -->
<g id="node12" class="node">
<title>NewCustomerComponent</title>
<polygon fill="#ffffb3" stroke="black" points="1022.21,-84.8 859.79,-84.8 859.79,-48.8 1022.21,-48.8 1022.21,-84.8"/>
<text text-anchor="middle" x="941" y="-62.6" font-family="Times,serif" font-size="14.00">NewCustomerComponent</text>
</g>
<!-- NewCustomerComponent&#45;&gt;AppModule -->
<g id="edge12" class="edge">
<title>NewCustomerComponent&#45;&gt;AppModule</title>
<path fill="none" stroke="black" d="M941,-84.81C941,-100.85 941,-121.8 941,-121.8 941,-121.8 1248.12,-121.8 1248.12,-121.8"/>
<polygon fill="black" stroke="black" points="1248.12,-125.3 1258.12,-121.8 1248.12,-118.3 1248.12,-125.3"/>
</g>
<!-- OrdersComponent -->
<g id="node13" class="node">
<title>OrdersComponent</title>
<polygon fill="#ffffb3" stroke="black" points="841.93,-84.8 722.07,-84.8 722.07,-48.8 841.93,-48.8 841.93,-84.8"/>
<text text-anchor="middle" x="782" y="-62.6" font-family="Times,serif" font-size="14.00">OrdersComponent</text>
</g>
<!-- OrdersComponent&#45;&gt;AppModule -->
<g id="edge13" class="edge">
<title>OrdersComponent&#45;&gt;AppModule</title>
<path fill="none" stroke="black" d="M782,-84.82C782,-102.17 782,-125.8 782,-125.8 782,-125.8 1248.05,-125.8 1248.05,-125.8"/>
<polygon fill="black" stroke="black" points="1248.05,-129.3 1258.05,-125.8 1248.05,-122.3 1248.05,-129.3"/>
</g>
<!-- SearchPipe -->
<g id="node14" class="node">
<title>SearchPipe</title>
<polygon fill="#ffffb3" stroke="black" points="704.48,-84.8 625.52,-84.8 625.52,-48.8 704.48,-48.8 704.48,-84.8"/>
<text text-anchor="middle" x="665" y="-62.6" font-family="Times,serif" font-size="14.00">SearchPipe</text>
</g>
<!-- SearchPipe&#45;&gt;AppModule -->
<g id="edge14" class="edge">
<title>SearchPipe&#45;&gt;AppModule</title>
<path fill="none" stroke="black" d="M665,-85.02C665,-103.63 665,-129.8 665,-129.8 665,-129.8 1248.34,-129.8 1248.34,-129.8"/>
<polygon fill="black" stroke="black" points="1248.34,-133.3 1258.34,-129.8 1248.34,-126.3 1248.34,-133.3"/>
</g>
<!-- TestComponent -->
<g id="node15" class="node">
<title>TestComponent</title>
<polygon fill="#ffffb3" stroke="black" points="607.94,-84.8 502.06,-84.8 502.06,-48.8 607.94,-48.8 607.94,-84.8"/>
<text text-anchor="middle" x="555" y="-62.6" font-family="Times,serif" font-size="14.00">TestComponent</text>
</g>
<!-- TestComponent&#45;&gt;AppModule -->
<g id="edge15" class="edge">
<title>TestComponent&#45;&gt;AppModule</title>
<path fill="none" stroke="black" d="M555,-85.11C555,-104.95 555,-133.8 555,-133.8 555,-133.8 1248.08,-133.8 1248.08,-133.8"/>
<polygon fill="black" stroke="black" points="1248.08,-137.3 1258.08,-133.8 1248.08,-130.3 1248.08,-137.3"/>
</g>
<!-- ViewordersComponent -->
<g id="node16" class="node">
<title>ViewordersComponent</title>
<polygon fill="#ffffb3" stroke="black" points="484.14,-84.8 337.86,-84.8 337.86,-48.8 484.14,-48.8 484.14,-84.8"/>
<text text-anchor="middle" x="411" y="-62.6" font-family="Times,serif" font-size="14.00">ViewordersComponent</text>
</g>
<!-- ViewordersComponent&#45;&gt;AppModule -->
<g id="edge16" class="edge">
<title>ViewordersComponent&#45;&gt;AppModule</title>
<path fill="none" stroke="black" d="M411,-85.08C411,-106.12 411,-137.8 411,-137.8 411,-137.8 1248.31,-137.8 1248.31,-137.8"/>
<polygon fill="black" stroke="black" points="1248.31,-141.3 1258.31,-137.8 1248.31,-134.3 1248.31,-141.3"/>
</g>
<!-- AppComponent  -->
<g id="node19" class="node">
<title>AppComponent </title>
<polygon fill="#80b1d3" stroke="black" points="1354.44,-214.8 1245.56,-214.8 1245.56,-178.8 1354.44,-178.8 1354.44,-214.8"/>
<text text-anchor="middle" x="1300" y="-192.6" font-family="Times,serif" font-size="14.00">AppComponent </text>
</g>
<!-- AppModule&#45;&gt;AppComponent  -->
<g id="edge18" class="edge">
<title>AppModule&#45;&gt;AppComponent </title>
<path fill="none" stroke="black" stroke-dasharray="1,5" d="M1300,-149.91C1300,-149.91 1300,-168.79 1300,-168.79"/>
<polygon fill="black" stroke="black" points="1296.5,-168.79 1300,-178.79 1303.5,-168.79 1296.5,-168.79"/>
</g>
<!-- AppRoutingModule -->
<g id="node18" class="node">
<title>AppRoutingModule</title>
<polygon fill="#8dd3c7" stroke="black" points="314.28,-84.8 311.28,-88.8 290.28,-88.8 287.28,-84.8 185.72,-84.8 185.72,-48.8 314.28,-48.8 314.28,-84.8"/>
<text text-anchor="middle" x="250" y="-62.6" font-family="Times,serif" font-size="14.00">AppRoutingModule</text>
</g>
<!-- AppRoutingModule&#45;&gt;AppModule -->
<g id="edge17" class="edge">
<title>AppRoutingModule&#45;&gt;AppModule</title>
<path fill="none" stroke="black" d="M250,-84.96C250,-107.15 250,-141.8 250,-141.8 250,-141.8 1248.19,-141.8 1248.19,-141.8"/>
<polygon fill="black" stroke="black" points="1248.19,-145.3 1258.19,-141.8 1248.19,-138.3 1248.19,-145.3"/>
</g>
<!-- ServiceService -->
<g id="node20" class="node">
<title>ServiceService</title>
<ellipse fill="#fdb462" stroke="black" cx="93" cy="-66.8" rx="68.9" ry="18"/>
<text text-anchor="middle" x="93" y="-62.6" font-family="Times,serif" font-size="14.00">ServiceService</text>
</g>
<!-- ServiceService&#45;&gt;AppModule -->
<g id="edge19" class="edge">
<title>ServiceService&#45;&gt;AppModule</title>
<path fill="none" stroke="black" d="M93,-85.12C93,-108.46 93,-145.8 93,-145.8 93,-145.8 1248.1,-145.8 1248.1,-145.8"/>
<polygon fill="black" stroke="black" points="1248.1,-149.3 1258.1,-145.8 1248.1,-142.3 1248.1,-149.3"/>
</g>
</g>
</svg>
